<svg xmlns="http://www.w3.org/2000/svg" width="365" height="59" viewBox="0 0 365 59">
  <path fill="#FF6600" fill-rule="evenodd" d="M330.728945,46 L326.984945,56.9909091 L352.072582,56.9909091 L354.143127,51.7338182 L330.728945,46 Z M361.517673,83.3333091 C364.973673,73.1725818 365.802764,67.0874909 363.985309,65.0813091 C362.074036,62.9311273 354.492218,61.8631273 341.224582,61.8631273 C327.942764,61.8631273 319.611491,62.9464 316.236218,65.1445818 C313.144582,67.1191273 309.880582,73.1725818 306.439855,83.3333091 C303.954764,90.7078545 302.698036,95.5340364 302.664218,97.8118545 C302.664218,100.805309 304.417309,102.764582 307.9224,103.656945 C310.723855,104.357309 316.967127,104.707491 326.682764,104.707491 C339.934036,104.707491 348.265309,103.607855 351.706036,101.427127 C354.827127,99.4514909 358.091127,93.4154909 361.517673,83.3333091 Z M317.939127,92.6038545 C317.016218,91.7267636 317.461309,88.6373091 319.2624,83.3333091 C321.077673,77.9976727 322.765309,74.8918545 324.294764,73.9994909 C325.855855,73.1093091 330.299127,72.6620364 337.640945,72.6620364 C344.983855,72.6620364 349.093309,73.1093091 350.016218,73.9994909 C350.957673,74.8918545 350.527855,77.9976727 348.712582,83.3333091 C346.911491,88.6045818 345.239127,91.6951273 343.676945,92.5864 C342.149673,93.4787636 337.705309,93.9249455 330.348218,93.9249455 C323.020582,93.9249455 318.880582,93.4787636 317.939127,92.6038545 Z M301.534691,82.5055273 C302.983418,80.7851636 304.306691,78.1571636 305.516509,74.5888 C307.061236,70.0342545 307.1256,66.8640727 305.723782,65.1120727 C304.338327,63.3448 301.374327,62.4688 296.819782,62.4688 L259.503055,62.4688 L245.359418,104.133891 L258.164509,104.133891 L262.146327,92.4600727 L282.4056,92.4600727 C283.903418,92.4600727 284.842691,92.9378909 285.256145,93.9251636 C285.575782,94.6571636 285.558327,95.5648 285.209236,96.6808 L282.644509,104.133891 L295.481236,104.133891 L298.637236,94.8011636 C299.527418,92.1884364 299.766327,90.3895273 299.352873,89.3706182 C298.939418,88.3506182 297.727418,87.3469818 295.753964,86.3433455 C298.189964,85.4837091 300.1176,84.2095273 301.534691,82.5055273 Z M265.794327,81.6764364 L268.660145,73.2513455 L289.237964,73.2513455 C290.608145,73.2513455 291.5016,73.5535273 291.882327,74.1917091 C292.313236,74.7960727 292.264145,75.8957091 291.723055,77.4884364 C291.181964,79.0800727 290.497964,80.1797091 289.700509,80.7688 C288.888873,81.3742545 287.772873,81.6764364 286.373236,81.6764364 L265.794327,81.6764364 Z M252.303164,73.2514545 L255.965345,62.4689091 L206.370436,62.4689091 L202.689709,73.2514545 L221.118436,73.2514545 L210.605345,104.134 L223.443164,104.134 L233.9388,73.2514545 L252.303164,73.2514545 Z M199.440873,74.5890182 C200.9856,70.0344727 201.049964,66.8642909 199.647055,65.1122909 C198.262691,63.3450182 195.298691,62.4690182 190.745236,62.4690182 L153.427418,62.4690182 L139.283782,104.134109 L152.088873,104.134109 L156.071782,92.4592 L176.331055,92.4592 C177.827782,92.4592 178.767055,92.9370182 179.1816,93.9253818 C179.499055,94.6573818 179.484873,95.5650182 179.1336,96.6810182 L176.569964,104.134109 L189.406691,104.134109 L192.560509,94.8002909 C193.451782,92.1886545 193.690691,90.3886545 193.277236,89.3697455 C192.863782,88.3508364 191.652873,87.3472 189.677236,86.3435636 C192.114327,85.4839273 194.041964,84.2097455 195.459055,82.5057455 C196.907782,80.7853818 198.231055,78.1573818 199.440873,74.5890182 Z M159.7176,81.6766545 L162.584509,73.2515636 L183.163418,73.2515636 C184.5336,73.2515636 185.424873,73.5537455 185.807782,74.1919273 C186.236509,74.7962909 186.1896,75.8959273 185.647418,77.4886545 C185.106327,79.0802909 184.421236,80.1799273 183.625964,80.7690182 C182.812145,81.3744727 181.698327,81.6766545 180.296509,81.6766545 L159.7176,81.6766545 Z M131.622873,62.4691273 L109.754509,62.4691273 L74.8890545,104.134218 L89.8617818,104.134218 L96.2163273,97.1905818 L121.620327,97.1905818 L123.229418,104.134218 L138.184691,104.134218 L131.622873,62.4691273 Z M104.642509,86.4069455 L116.4756,71.8029455 L118.530873,71.8029455 L120.425782,86.4069455 L104.642509,86.4069455 Z M53.9770909,73.1721455 C55.9843636,72.8219636 58.8349091,72.6626909 62.5461818,72.6626909 C68.1523636,72.6626909 71.6094545,73.0597818 72.9305455,73.8888727 C74.0138182,74.5412364 74.1567273,76.0706909 73.3287273,78.4914182 L86.1665455,78.4914182 C88.6821818,71.1016 89.0181818,66.5623273 87.1854545,64.8583273 C85.1149091,62.8510545 78.1232727,61.8637818 66.2410909,61.8637818 L0,61.8637818 L0,66.9441455 L41.3629091,66.9441455 C40.7574545,67.6456 40.1367273,68.4736 39.5312727,69.4608727 L0,69.4608727 L0,74.4779636 L36.8869091,74.4779636 C36.5214545,75.2743273 36.1549091,76.1186909 35.7883636,77.0099636 L0,77.0099636 L0,82.0434182 L33.8934545,82.0434182 C33.7494545,82.4416 33.6218182,82.8397818 33.4789091,83.2379636 C33.3349091,83.6841455 33.1767273,84.1292364 33.0327273,84.5765091 L0,84.5765091 L0,89.6088727 L31.536,89.6088727 C31.2970909,90.4848727 31.0909091,91.3292364 30.9141818,92.1256 L0,92.1256 L0,97.1579636 L30.1821818,97.1579636 C30.1341818,98.1288727 30.1821818,98.9579636 30.3250909,99.6746909 L0,99.6746909 L0,104.675418 L54.7418182,104.675418 L54.7898182,104.675418 L55.6974545,104.675418 C65.3967273,104.469236 71.736,103.481964 74.7458182,101.745236 C77.6607273,100.072873 80.3847273,95.5346909 82.9014545,88.1121455 L70.0636364,88.1121455 C69.204,90.6277818 67.9614545,92.2205091 66.3043636,92.8903273 C64.68,93.5743273 61.0178182,93.9245091 55.3461818,93.9245091 C49.056,93.9245091 45.5203636,93.4794182 44.7556364,92.5554182 C44.0061818,91.6314182 44.5167273,88.5572364 46.3003636,83.3328727 C47.3836364,80.1168727 48.4025455,77.7266909 49.3581818,76.1339636 C49.9636364,75.1303273 50.5363636,74.4452364 51.0785455,74.0797818 C51.6676364,73.6979636 52.6232727,73.3946909 53.9770909,73.1721455 Z" transform="translate(0 -46)"/>
</svg>
